<svg width="352" height="278" viewBox="0 0 352 278" fill="none" xmlns="http://www.w3.org/2000/svg">
<path d="M202.48 185.172C202.309 187.988 202.139 190.847 201.968 193.748C201.797 196.564 201.328 199.295 200.56 201.94C199.877 204.586 198.768 206.975 197.232 209.108C195.781 211.242 193.691 212.948 190.96 214.228C188.571 215.423 186.011 216.234 183.28 216.66C180.549 217.172 177.819 217.386 175.088 217.3C172.357 217.215 169.712 216.788 167.152 216.02C164.592 215.338 162.288 214.356 160.24 213.076C158.192 211.796 156.528 210.132 155.248 208.084C153.968 206.036 152.944 203.818 152.176 201.428C151.493 199.039 151.024 196.564 150.768 194.004C150.512 191.444 150.341 189.055 150.256 186.836C149.915 180.948 149.915 175.146 150.256 169.428C150.256 168.319 150.256 167.082 150.256 165.716C150.256 164.266 150.341 162.858 150.512 161.492C150.768 160.127 151.152 158.89 151.664 157.78C152.176 156.586 153.029 155.69 154.224 155.092C156.784 153.727 159.131 153.642 161.264 154.836C163.483 156.031 164.805 158.506 165.232 162.26C165.488 164.223 165.573 166.399 165.488 168.788C165.488 171.178 165.573 173.354 165.744 175.316C165.829 178.218 165.915 181.375 166 184.788C166.085 188.116 166.555 191.103 167.408 193.748C168.347 196.394 169.84 198.399 171.888 199.764C174.021 201.044 177.179 201.087 181.36 199.892C183.323 199.295 184.603 197.802 185.2 195.412C185.883 193.023 186.224 189.482 186.224 184.788C186.224 182.74 186.181 180.479 186.096 178.004C186.011 175.53 185.968 173.098 185.968 170.708C185.968 168.234 186.011 165.972 186.096 163.924C186.267 161.791 186.523 160.17 186.864 159.06C187.291 157.524 188.187 156.372 189.552 155.604C190.917 154.836 192.368 154.452 193.904 154.452C195.44 154.367 196.891 154.666 198.256 155.348C199.621 156.031 200.56 157.14 201.072 158.676C201.584 160.042 201.925 161.791 202.096 163.924C202.352 165.972 202.523 168.234 202.608 170.708C202.693 173.098 202.693 175.572 202.608 178.132C202.608 180.607 202.565 182.954 202.48 185.172Z" fill="#A67D5C"/>
<path d="M123.024 249C122.939 249.427 122.853 249.853 122.768 250.28C122.768 250.621 122.768 251.005 122.768 251.432L122 254.12C121.829 254.461 121.701 254.675 121.616 254.76L121.232 255.528C120.805 256.467 120.037 257.235 118.928 257.832C116.88 258.856 114.704 259.112 112.4 258.6C110.949 258.429 109.797 258.003 108.944 257.32C108.091 256.723 107.493 255.997 107.152 255.144C106.811 254.291 106.555 253.437 106.384 252.584C106.128 251.731 106 250.963 106 250.28V178.6C106 178.003 106 177.491 106 177.064C106.085 176.552 106.171 176.083 106.256 175.656C106.341 175.059 106.427 174.547 106.512 174.12C106.683 173.693 106.853 173.224 107.024 172.712C107.28 171.859 107.749 171.176 108.432 170.664C109.456 169.896 110.437 169.469 111.376 169.384C111.973 169.213 112.528 169.128 113.04 169.128C113.552 169.043 114.149 169 114.832 169C116.027 169 117.392 169.341 118.928 170.024C120.123 170.707 120.976 171.645 121.488 172.84C122.341 174.547 122.768 176.125 122.768 177.576C122.853 178.429 122.896 179.709 122.896 181.416C122.981 183.123 123.024 184.403 123.024 185.256V185.768C123.195 188.499 123.28 191.144 123.28 193.704C123.28 196.179 123.237 198.909 123.152 201.896C123.152 204.797 123.109 207.613 123.024 210.344C123.024 212.989 123.024 215.635 123.024 218.28V245.16C123.024 245.501 123.024 245.843 123.024 246.184C123.109 246.44 123.152 246.739 123.152 247.08C123.152 247.933 123.109 248.573 123.024 249Z" fill="#A67D5C"/>
<path d="M67.84 254.69C68.9494 257.165 68.992 259.597 67.968 261.986C66.944 264.29 65.3227 266.424 63.104 268.386C60.8853 270.349 58.3253 272.056 55.424 273.506C52.608 274.957 49.92 275.981 47.36 276.578C44.544 277.176 41.5574 277.432 38.4 277.346C35.328 277.346 32.2134 276.962 29.056 276.194C25.984 275.512 22.9547 274.488 19.968 273.122C17.0667 271.672 14.3787 269.922 11.904 267.874C8.91736 265.4 6.57068 262.456 4.86401 259.042C3.24268 255.544 2.04803 251.832 1.28003 247.906C0.512029 243.981 0.0853335 240.056 0 236.13C0 232.12 0.128002 228.365 0.384003 224.866C0.640003 221.709 1.28002 218.424 2.30402 215.01C3.32802 211.597 4.73601 208.269 6.52802 205.026C8.40535 201.698 10.624 198.626 13.184 195.81C15.8294 192.994 18.9014 190.605 22.4 188.642C25.0454 187.106 27.9894 186.082 31.232 185.57C34.56 184.973 37.888 184.845 41.216 185.186C44.6293 185.442 47.8293 186.168 50.816 187.362C53.888 188.472 56.4907 190.008 58.624 191.97C59.9894 193.165 61.3974 194.829 62.848 196.962C64.384 199.096 65.4934 201.272 66.176 203.49C66.8587 205.709 66.8587 207.8 66.176 209.762C65.5787 211.64 63.872 212.92 61.056 213.602C59.8614 213.944 58.7947 214.029 57.856 213.858C56.9174 213.602 56.064 213.218 55.296 212.706C54.528 212.109 53.8027 211.426 53.12 210.658C52.4374 209.89 51.7973 209.122 51.2 208.354C49.152 205.88 46.7627 204.216 44.032 203.362C41.3013 202.424 38.5707 202.21 35.84 202.722C33.1947 203.149 30.6774 204.258 28.288 206.05C25.984 207.757 24.192 209.976 22.912 212.706C21.5467 215.608 20.4373 218.808 19.584 222.306C18.816 225.72 18.3893 229.218 18.304 232.802C18.2187 236.301 18.5173 239.714 19.2 243.042C19.968 246.37 21.248 249.314 23.04 251.874C24.4053 253.922 26.0693 255.586 28.032 256.866C30.08 258.146 32.256 259.042 34.56 259.554C36.864 260.066 39.168 260.152 41.472 259.81C43.8613 259.469 46.1654 258.701 48.384 257.506C49.0667 257.165 49.792 256.696 50.56 256.098C51.4134 255.416 52.2667 254.733 53.12 254.05C53.9734 253.368 54.8267 252.728 55.68 252.13C56.6187 251.533 57.6 251.106 58.624 250.85C60.16 250.338 61.824 250.381 63.616 250.978C65.4934 251.576 66.9014 252.813 67.84 254.69Z" fill="#A67D5C"/>
<path d="M269.839 156.259C271.147 155.933 272.455 155.716 273.763 155.608C275.18 155.499 276.433 155.662 277.523 156.096C278.722 156.531 279.703 157.291 280.466 158.377C281.229 159.355 281.61 160.767 281.61 162.613C281.61 163.916 281.283 165.166 280.629 166.36C279.975 167.555 279.158 168.641 278.177 169.619C277.196 170.596 276.106 171.465 274.907 172.225C273.708 172.877 272.564 173.42 271.474 173.855C268.313 175.267 264.662 176.353 260.52 177.113C256.488 177.873 252.292 178.145 247.932 177.928C242.046 177.71 236.379 176.57 230.929 174.506C225.589 172.334 221.392 168.804 218.341 163.916C215.507 159.137 213.817 153.815 213.272 147.95C212.728 142.085 213 136.546 214.09 131.332C215.289 125.033 217.305 119.928 220.139 116.018C223.082 111.999 226.569 108.795 230.602 106.406C235.507 103.582 241.011 102.115 247.114 102.007C253.218 101.898 259.049 103.093 264.608 105.591C268.313 107.22 271.638 109.447 274.58 112.271C277.523 114.986 279.758 118.299 281.283 122.209C281.719 123.186 282.046 124.381 282.264 125.793C282.591 127.205 282.809 128.726 282.918 130.355C283.027 131.875 283.027 133.396 282.918 134.917C282.809 136.437 282.537 137.795 282.101 138.99C281.447 140.945 280.629 142.465 279.648 143.551C278.668 144.638 277.414 145.452 275.888 145.995C274.362 146.538 272.51 146.918 270.33 147.136C268.259 147.244 265.752 147.353 262.809 147.462C260.193 147.57 257.741 147.624 255.452 147.624C253.163 147.624 250.82 147.624 248.422 147.624C246.025 147.516 243.518 147.462 240.902 147.462C238.395 147.353 235.561 147.244 232.401 147.136C232.074 149.308 232.346 151.209 233.218 152.838C234.199 154.358 235.507 155.662 237.142 156.748C238.777 157.725 240.629 158.486 242.7 159.029C244.771 159.572 246.787 159.898 248.749 160.006C252.455 160.224 255.997 159.952 259.376 159.192C262.755 158.323 266.243 157.345 269.839 156.259ZM262.809 124.653C260.738 122.263 258.559 120.525 256.27 119.439C254.526 118.679 252.673 118.353 250.711 118.462C248.858 118.462 247.06 118.733 245.316 119.276C242.155 120.037 239.485 121.666 237.305 124.164C237.087 124.381 236.706 124.924 236.161 125.793C235.616 126.553 235.071 127.368 234.526 128.237C234.09 129.106 233.763 129.92 233.545 130.681C233.327 131.441 233.436 131.821 233.872 131.821H265.916C265.807 130.301 265.534 129.052 265.098 128.074C264.662 126.988 263.899 125.847 262.809 124.653Z" fill="#A67D5C"/>
<path d="M198.736 88.5408C200.187 88.9675 201.125 89.7781 201.552 90.9728C201.979 92.0821 202.107 93.2768 201.936 94.5568C201.424 97.2021 199.973 98.8235 197.584 99.4208C196.219 99.7621 194.811 99.9328 193.36 99.9328C191.995 99.9328 190.587 99.9755 189.136 100.061V129.629C189.136 131.677 189.008 133.767 188.752 135.901C188.752 136.669 188.539 137.479 188.112 138.333C187.941 138.759 187.813 139.015 187.728 139.101C187.728 139.271 187.643 139.527 187.472 139.869C186.96 140.807 186.277 141.575 185.424 142.173C183.547 143.197 181.541 143.453 179.408 142.941C178.128 142.685 177.147 142.258 176.464 141.661C175.696 141.063 175.141 140.338 174.8 139.485C174.629 139.058 174.501 138.631 174.416 138.205C174.331 137.778 174.203 137.351 174.032 136.925C173.947 136.498 173.861 136.114 173.776 135.773C173.776 135.346 173.776 135.005 173.776 134.749V127.325C173.776 122.887 173.776 118.279 173.776 113.501C173.861 108.722 173.904 104.114 173.904 99.6768C171.941 99.5915 169.893 99.5488 167.76 99.5488C165.712 99.4635 164.219 98.9515 163.28 98.0128C162.768 97.5008 162.427 96.8608 162.256 96.0928C162.085 95.2395 162 94.3861 162 93.5328C162.085 92.6795 162.256 91.9115 162.512 91.2288C162.768 90.4608 163.109 89.9061 163.536 89.5648C164.645 88.5408 165.627 87.9861 166.48 87.9008C167.419 87.7301 168.571 87.6021 169.936 87.5168C170.107 87.5168 170.661 87.5168 171.6 87.5168C172.624 87.4315 173.264 87.3888 173.52 87.3888C173.605 84.4875 173.691 81.5861 173.776 78.6848C173.861 75.7835 174.117 73.1381 174.544 70.7488C175.056 68.2741 175.781 66.1408 176.72 64.3488C177.744 62.4715 179.28 61.0635 181.328 60.1248C183.803 59.0155 186.619 58.3328 189.776 58.0768C192.933 57.8208 195.792 58.2048 198.352 59.2288C199.547 59.6555 200.699 60.5088 201.808 61.7888C203.003 63.0688 203.557 64.4768 203.472 66.0128C203.387 67.5488 203.088 68.9568 202.576 70.2368C202.064 71.5168 200.955 72.3701 199.248 72.7968C198.48 72.9675 197.669 73.0528 196.816 73.0528C196.048 72.9675 195.237 72.9248 194.384 72.9248C193.531 72.9248 192.72 73.0528 191.952 73.3088C191.269 73.4795 190.672 73.8635 190.16 74.4608C189.733 74.9728 189.435 75.6555 189.264 76.5088C189.179 77.3621 189.093 78.2581 189.008 79.1968C188.923 80.1355 188.88 81.0741 188.88 82.0128C188.965 82.8661 189.008 83.5915 189.008 84.1888V87.3888C190.971 87.5595 192.763 87.6875 194.384 87.7728C196.091 87.8581 197.541 88.1141 198.736 88.5408Z" fill="#A67D5C"/>
<path d="M97.9867 49.2582C100.547 47.9782 103.235 47.0822 106.051 46.5702C108.867 45.9728 111.64 45.8448 114.371 46.1862C117.187 46.4422 119.875 47.1675 122.435 48.3622C124.995 49.4715 127.384 51.0929 129.603 53.2262C131.821 55.4449 133.528 57.8768 134.723 60.5222C135.917 63.1675 136.771 66.1115 137.283 69.3542C137.624 71.5729 138.179 73.6208 138.947 75.4982C139.715 77.3755 140.525 79.2529 141.379 81.1302C142.317 83.0075 143.171 84.8849 143.939 86.7622C144.792 88.6395 145.475 90.6022 145.987 92.6502C146.413 94.6129 146.243 96.5329 145.475 98.4102C144.792 100.202 143.341 101.312 141.123 101.738C139.843 101.994 138.605 101.909 137.411 101.482C136.301 100.97 135.277 100.288 134.339 99.4342C133.4 98.4955 132.547 97.5142 131.779 96.4902C131.096 95.3809 130.456 94.3569 129.859 93.4182C127.896 95.9782 125.763 97.9835 123.459 99.4342C121.155 100.8 118.381 101.696 115.139 102.122C112.408 102.464 109.805 102.549 107.331 102.378C104.856 102.208 102.211 101.738 99.3947 100.97C95.7253 100.032 92.696 98.4102 90.3067 96.1062C88.0027 93.7169 86.2107 90.9862 84.9307 87.9142C83.736 84.7569 83.096 81.3862 83.0107 77.8022C82.9253 74.2182 83.352 70.6769 84.2907 67.1782C85.4853 62.5702 87.2773 58.8155 89.6667 55.9142C92.056 53.0128 94.8293 50.7942 97.9867 49.2582ZM101.187 64.2342C99.992 65.4288 99.0533 66.8368 98.3707 68.4582C97.688 70.0795 97.2613 71.7862 97.0907 73.5782C97.0053 75.3702 97.176 77.1622 97.6027 78.9542C98.0293 80.7462 98.712 82.3249 99.6507 83.6902C100.504 84.8849 101.955 85.9089 104.003 86.7622C106.051 87.5302 108.184 87.9995 110.403 88.1702C112.963 88.3409 115.181 87.6582 117.059 86.1222C119.021 84.5862 120.472 82.6662 121.411 80.3622C122.435 77.9729 122.904 75.4555 122.819 72.8102C122.733 70.0795 122.008 67.6048 120.643 65.3862C119.619 63.7649 118.253 62.5702 116.547 61.8022C114.925 61.0342 113.176 60.6502 111.299 60.6502C109.421 60.5649 107.544 60.8635 105.667 61.5462C103.875 62.1435 102.381 63.0395 101.187 64.2342Z" fill="#A67D5C"/>
<path d="M67.84 69.6902C68.9493 72.1649 68.992 74.5968 67.968 76.9862C66.944 79.2902 65.3227 81.4235 63.104 83.3862C60.8853 85.3489 58.3253 87.0555 55.424 88.5062C52.608 89.9568 49.92 90.9809 47.36 91.5782C44.544 92.1755 41.5573 92.4315 38.4 92.3462C35.328 92.3462 32.2133 91.9622 29.056 91.1942C25.984 90.5115 22.9547 89.4875 19.968 88.1222C17.0667 86.6715 14.3787 84.9222 11.904 82.8742C8.91733 80.3995 6.57067 77.4555 4.864 74.0422C3.24267 70.5435 2.048 66.8315 1.28 62.9062C0.512 58.9808 0.0853335 55.0555 0 51.1302C0 47.1195 0.128 43.3648 0.384 39.8662C0.64 36.7088 1.28 33.4235 2.304 30.0102C3.328 26.5969 4.736 23.2688 6.528 20.0262C8.40533 16.6982 10.624 13.6262 13.184 10.8102C15.8293 7.99418 18.9013 5.60485 22.4 3.64218C25.0453 2.10618 27.9893 1.08218 31.232 0.570185C34.56 -0.0271512 37.888 -0.155152 41.216 0.186182C44.6293 0.442184 47.8293 1.16752 50.816 2.36218C53.888 3.47151 56.4907 5.00751 58.624 6.97018C59.9893 8.16485 61.3973 9.82885 62.848 11.9622C64.384 14.0955 65.4933 16.2715 66.176 18.4902C66.8587 20.7088 66.8587 22.7995 66.176 24.7622C65.5787 26.6395 63.872 27.9195 61.056 28.6022C59.8613 28.9435 58.7947 29.0288 57.856 28.8582C56.9173 28.6022 56.064 28.2182 55.296 27.7062C54.528 27.1088 53.8027 26.4262 53.12 25.6582C52.4373 24.8902 51.7973 24.1222 51.2 23.3542C49.152 20.8795 46.7627 19.2155 44.032 18.3622C41.3013 17.4235 38.5707 17.2102 35.84 17.7222C33.1947 18.1489 30.6773 19.2582 28.288 21.0502C25.984 22.7569 24.192 24.9755 22.912 27.7062C21.5467 30.6075 20.4373 33.8075 19.584 37.3062C18.816 40.7195 18.3893 44.2182 18.304 47.8022C18.2187 51.3009 18.5173 54.7142 19.2 58.0422C19.968 61.3702 21.248 64.3142 23.04 66.8742C24.4053 68.9222 26.0693 70.5862 28.032 71.8662C30.08 73.1462 32.256 74.0422 34.56 74.5542C36.864 75.0662 39.168 75.1515 41.472 74.8102C43.8613 74.4688 46.1653 73.7008 48.384 72.5062C49.0667 72.1648 49.792 71.6955 50.56 71.0982C51.4133 70.4155 52.2667 69.7329 53.12 69.0502C53.9733 68.3675 54.8267 67.7275 55.68 67.1302C56.6187 66.5328 57.6 66.1062 58.624 65.8502C60.16 65.3382 61.824 65.3808 63.616 65.9782C65.4933 66.5755 66.9013 67.8129 67.84 69.6902Z" fill="#A67D5C"/>
<path fill-rule="evenodd" clip-rule="evenodd" d="M297.928 162.505C306.135 152.807 310.629 140.509 310.609 127.805C310.609 98.0879 286.521 74 256.805 74C227.088 74 203 98.0879 203 127.805C203 157.521 227.088 181.609 256.805 181.609C270.028 181.609 282.134 176.841 291.505 168.928L289.915 178.067L321.014 209.166L338.166 192.014L307.067 160.915L297.928 162.505ZM256.805 169.193C279.663 169.193 298.193 150.663 298.193 127.805C298.193 104.946 279.663 86.4165 256.805 86.4165C233.946 86.4165 215.416 104.946 215.416 127.805C215.416 150.663 233.946 169.193 256.805 169.193Z" fill="#704214"/>
<path d="M326.869 215.018L344.02 197.867L349.633 203.479C352.791 206.637 352.791 211.757 349.633 214.91L343.913 220.63C340.755 223.788 335.635 223.788 332.481 220.63L326.869 215.018Z" fill="#704214"/>
</svg>
